<mxfile host="Electron" modified="2024-03-17T22:13:00.614Z" agent="Mozilla/5.0 (Windows NT 10.0; Win64; x64) AppleWebKit/537.36 (KHTML, like Gecko) draw.io/24.0.4 Chrome/120.0.6099.109 Electron/28.1.0 Safari/537.36" etag="J104jVrTR3ZV1Vn3emS1" version="24.0.4" type="device">
  <diagram id="C5RBs43oDa-KdzZeNtuy" name="Page-1">
    <mxGraphModel dx="819" dy="478" grid="1" gridSize="10" guides="1" tooltips="1" connect="1" arrows="1" fold="1" page="1" pageScale="1" pageWidth="827" pageHeight="1169" math="0" shadow="0">
      <root>
        <mxCell id="WIyWlLk6GJQsqaUBKTNV-0" />
        <mxCell id="WIyWlLk6GJQsqaUBKTNV-1" parent="WIyWlLk6GJQsqaUBKTNV-0" />
        <mxCell id="WIyWlLk6GJQsqaUBKTNV-2" value="" style="rounded=0;html=1;jettySize=auto;orthogonalLoop=1;fontSize=11;endArrow=block;endFill=0;endSize=8;strokeWidth=1;shadow=0;labelBackgroundColor=none;edgeStyle=orthogonalEdgeStyle;" parent="WIyWlLk6GJQsqaUBKTNV-1" edge="1">
          <mxGeometry relative="1" as="geometry">
            <mxPoint x="180" y="115" as="sourcePoint" />
            <mxPoint x="180" y="180" as="targetPoint" />
            <Array as="points">
              <mxPoint x="180" y="170" />
            </Array>
          </mxGeometry>
        </mxCell>
        <mxCell id="oAM8HUjdJAKh4MfxGtdR-1" style="edgeStyle=orthogonalEdgeStyle;rounded=0;orthogonalLoop=1;jettySize=auto;html=1;exitX=1;exitY=0.5;exitDx=0;exitDy=0;entryX=0;entryY=0.5;entryDx=0;entryDy=0;" edge="1" parent="WIyWlLk6GJQsqaUBKTNV-1" source="WIyWlLk6GJQsqaUBKTNV-3" target="oAM8HUjdJAKh4MfxGtdR-2">
          <mxGeometry relative="1" as="geometry">
            <mxPoint x="330" y="70" as="targetPoint" />
          </mxGeometry>
        </mxCell>
        <mxCell id="WIyWlLk6GJQsqaUBKTNV-3" value="&lt;b&gt;&lt;font color=&quot;#3399ff&quot;&gt;LARAVEL - ETAPA 1&lt;/font&gt;&lt;/b&gt;&lt;div style=&quot;text-align: left;&quot;&gt;&lt;font style=&quot;font-size: 10px;&quot;&gt;1- Criar nova aplicação Laravel&lt;/font&gt;&lt;/div&gt;&lt;div style=&quot;text-align: left;&quot;&gt;&lt;font style=&quot;font-size: 10px;&quot;&gt;2- Abrir arquivo .env do Laravel e configurar credenciais do BD ( DB_HOST, DB_PORT, DB_DATABASE, DB_USERNAME, DB_PASSWORD)&lt;/font&gt;&lt;/div&gt;" style="rounded=1;whiteSpace=wrap;html=1;fontSize=12;glass=0;strokeWidth=1;shadow=0;" parent="WIyWlLk6GJQsqaUBKTNV-1" vertex="1">
          <mxGeometry x="20" y="25" width="330" height="90" as="geometry" />
        </mxCell>
        <mxCell id="oAM8HUjdJAKh4MfxGtdR-2" value="&lt;b&gt;&lt;font color=&quot;#3399ff&quot;&gt;BANDO DE DADOS&lt;/font&gt;&lt;/b&gt;&lt;div style=&quot;text-align: left;&quot;&gt;&lt;font style=&quot;font-size: 10px;&quot;&gt;1- Configurar novo BD utilizando phpMyAdmin&lt;/font&gt;&lt;/div&gt;" style="rounded=1;whiteSpace=wrap;html=1;fontSize=12;glass=0;strokeWidth=1;shadow=0;" vertex="1" parent="WIyWlLk6GJQsqaUBKTNV-1">
          <mxGeometry x="414" y="50" width="300" height="40" as="geometry" />
        </mxCell>
        <mxCell id="oAM8HUjdJAKh4MfxGtdR-6" style="edgeStyle=orthogonalEdgeStyle;rounded=0;orthogonalLoop=1;jettySize=auto;html=1;entryX=0.5;entryY=0;entryDx=0;entryDy=0;" edge="1" parent="WIyWlLk6GJQsqaUBKTNV-1" source="oAM8HUjdJAKh4MfxGtdR-3" target="oAM8HUjdJAKh4MfxGtdR-4">
          <mxGeometry relative="1" as="geometry" />
        </mxCell>
        <mxCell id="oAM8HUjdJAKh4MfxGtdR-3" value="&lt;div style=&quot;text-align: center;&quot;&gt;&lt;b style=&quot;background-color: initial;&quot;&gt;&lt;font color=&quot;#3399ff&quot;&gt;LARAVEL - ETAPA 2&lt;/font&gt;&lt;/b&gt;&lt;/div&gt;&lt;div&gt;&lt;font style=&quot;font-size: 10px;&quot;&gt;1- No terminal executar o comando &#39;&#39;php artisan make:model Usuario -m&quot;&lt;/font&gt;&lt;/div&gt;&lt;div&gt;&lt;font style=&quot;font-size: 10px;&quot;&gt;2- Editar o arquivo migration derado em &quot;database/migrations&quot; e definir os campos necessários para a tabela de usuários, como &#39;email&#39; e &#39;senha&#39;&lt;/font&gt;&lt;/div&gt;&lt;div&gt;&lt;font style=&quot;font-size: 10px;&quot;&gt;3- Executar o comando &quot;php artisan migrate&quot; no terminal para criar a tabela de usuarios no BD&lt;/font&gt;&lt;/div&gt;" style="rounded=1;whiteSpace=wrap;html=1;fontSize=12;glass=0;strokeWidth=1;shadow=0;align=left;" vertex="1" parent="WIyWlLk6GJQsqaUBKTNV-1">
          <mxGeometry x="17.5" y="180" width="335" height="110" as="geometry" />
        </mxCell>
        <mxCell id="oAM8HUjdJAKh4MfxGtdR-8" style="edgeStyle=orthogonalEdgeStyle;rounded=0;orthogonalLoop=1;jettySize=auto;html=1;entryX=0.5;entryY=0;entryDx=0;entryDy=0;" edge="1" parent="WIyWlLk6GJQsqaUBKTNV-1" source="oAM8HUjdJAKh4MfxGtdR-4" target="oAM8HUjdJAKh4MfxGtdR-7">
          <mxGeometry relative="1" as="geometry" />
        </mxCell>
        <mxCell id="oAM8HUjdJAKh4MfxGtdR-4" value="&lt;div style=&quot;text-align: center;&quot;&gt;&lt;b style=&quot;background-color: initial;&quot;&gt;&lt;font color=&quot;#3399ff&quot;&gt;LARAVEL - CRIANDO ROTAS&lt;/font&gt;&lt;/b&gt;&lt;/div&gt;&lt;div&gt;&lt;font style=&quot;font-size: 10px;&quot;&gt;1- Dentro da pasta &#39;routes/web.php&#39; definir as rotas para o login usando o método &#39;Route::post()&#39; para definir uma rota que aceita POST para a URL /login e aponta para o controlador responsavel para lidar com a lógica de autenticação.&lt;br&gt;&lt;/font&gt;&lt;/div&gt;" style="rounded=1;whiteSpace=wrap;html=1;fontSize=12;glass=0;strokeWidth=1;shadow=0;align=left;" vertex="1" parent="WIyWlLk6GJQsqaUBKTNV-1">
          <mxGeometry x="17.5" y="360" width="335" height="110" as="geometry" />
        </mxCell>
        <mxCell id="oAM8HUjdJAKh4MfxGtdR-11" value="" style="edgeStyle=orthogonalEdgeStyle;rounded=0;orthogonalLoop=1;jettySize=auto;html=1;" edge="1" parent="WIyWlLk6GJQsqaUBKTNV-1" source="oAM8HUjdJAKh4MfxGtdR-7" target="oAM8HUjdJAKh4MfxGtdR-9">
          <mxGeometry relative="1" as="geometry" />
        </mxCell>
        <mxCell id="oAM8HUjdJAKh4MfxGtdR-7" value="&lt;div style=&quot;text-align: center;&quot;&gt;&lt;b style=&quot;background-color: initial;&quot;&gt;&lt;font color=&quot;#3399ff&quot;&gt;LARAVEL - CRIAR O CONTROLADOR&lt;/font&gt;&lt;/b&gt;&lt;/div&gt;&lt;div&gt;&lt;font style=&quot;font-size: 10px;&quot;&gt;1- No terminal criar um controlador &quot;php artisan make:controller AuthController&quot;&lt;br&gt;2- Editar o AuthController.php e implementar o método/function &quot;login&quot; que irá conter a lógica para autenticar o usuário com base nas credenciais fornecidas&lt;/font&gt;&lt;/div&gt;" style="rounded=1;whiteSpace=wrap;html=1;fontSize=12;glass=0;strokeWidth=1;shadow=0;align=left;" vertex="1" parent="WIyWlLk6GJQsqaUBKTNV-1">
          <mxGeometry x="17.5" y="530" width="335" height="110" as="geometry" />
        </mxCell>
        <mxCell id="oAM8HUjdJAKh4MfxGtdR-9" value="&lt;div style=&quot;text-align: center;&quot;&gt;&lt;b style=&quot;background-color: initial;&quot;&gt;&lt;font color=&quot;#3399ff&quot;&gt;LARAVEL - SEGURANÇA&lt;/font&gt;&lt;/b&gt;&lt;/div&gt;&lt;div&gt;&lt;font style=&quot;font-size: 10px;&quot;&gt;1- No backend Laravel, implementar o HTTPS para criptografar os dados aumentando a segurança (será necessário o OPENSSL)&lt;br&gt;2- Testar através do WireShark se está funcionando o HTTPS&lt;/font&gt;&lt;/div&gt;" style="rounded=1;whiteSpace=wrap;html=1;fontSize=12;glass=0;strokeWidth=1;shadow=0;align=left;" vertex="1" parent="WIyWlLk6GJQsqaUBKTNV-1">
          <mxGeometry x="17.5" y="700" width="335" height="110" as="geometry" />
        </mxCell>
      </root>
    </mxGraphModel>
  </diagram>
</mxfile>
